<svg width="17" height="15" viewBox="0 0 17 15" fill="none" xmlns="http://www.w3.org/2000/svg">
<path d="M13.3575 0.5H3.71521C1.83194 0.5 0.25 2.075 0.25 3.95V11.3C0.25 13.175 1.83194 14.75 3.71521 14.75H13.2822C15.2408 14.75 16.7474 13.175 16.7474 11.3V3.95C16.8228 2.075 15.2408 0.5 13.3575 0.5ZM15.3161 11.3C15.3161 12.35 14.4122 13.25 13.3575 13.25H3.71521C2.66058 13.25 1.75661 12.35 1.75661 11.3V5.375H13.9602C14.4122 5.375 14.7135 5.075 14.7135 4.625C14.7135 4.175 14.3368 3.875 13.9602 3.875H1.75661C1.83194 2.825 2.66058 2 3.71521 2H13.2822C14.4122 2 15.3161 2.9 15.3161 3.95V11.3Z" fill="#2A2B59" fill-opacity="0.4"/>
<path d="M7.492 6.75315C7.27375 6.46762 6.7645 6.39624 6.4735 6.68177L4.21825 8.60913C4.07275 8.75189 4 8.96604 4 9.1802C4 9.39435 4.07275 9.6085 4.21825 9.75126L6.4735 11.6072C6.619 11.75 6.7645 11.75 6.98275 11.75C7.201 11.75 7.41925 11.6786 7.56475 11.5359C7.85575 11.2503 7.783 10.822 7.492 10.5365L5.8915 9.1802L7.492 7.82391C7.783 7.46699 7.783 7.03869 7.492 6.75315Z" fill="#2A2B59" fill-opacity="0.4"/>
<path d="M10.4538 6.68428C10.1628 6.39481 9.6535 6.46717 9.43525 6.75664C9.14425 7.04611 9.217 7.48032 9.508 7.76979L11.1085 9.14477L9.508 10.5198C9.217 10.8092 9.14425 11.2434 9.43525 11.5329C9.58075 11.6776 9.799 11.75 10.0172 11.75C10.1627 11.75 10.381 11.6776 10.5265 11.6053L12.7818 9.65134C12.9273 9.50661 13 9.28951 13 9.0724C13 8.8553 12.9273 8.6382 12.7818 8.49346L10.4538 6.68428Z" fill="#2A2B59" fill-opacity="0.4"/>
</svg>
