<svg width="15" height="16" viewBox="0 0 15 16" fill="none" xmlns="http://www.w3.org/2000/svg">
<path fill-rule="evenodd" clip-rule="evenodd" d="M8.05714 2.17655C7.70491 1.94115 7.29509 1.94115 6.94286 2.17655L6.93008 2.1849L2.29575 5.1475C1.78367 5.47418 1.5 6.03795 1.5 6.60287V12.932C1.5 13.5296 1.97194 14 2.56343 14H12.4366C13.0281 14 13.5 13.5296 13.5 12.932V6.60287C13.5 6.01864 13.191 5.49487 12.6897 5.13818L8.06991 2.1849L8.05714 2.17655ZM8.88374 0.924851C8.03047 0.358381 6.96952 0.358383 6.11625 0.924857L1.48842 3.88329C1.48852 3.88323 1.48832 3.88336 1.48842 3.88329C0.523095 4.49928 0 5.55194 0 6.60287V12.932C0 14.3545 1.14 15.5 2.56343 15.5H12.4366C13.86 15.5 15 14.3545 15 12.932V6.60287C15 5.44123 14.3738 4.48746 13.539 3.90167C13.5302 3.89548 13.5212 3.88948 13.5122 3.88367L8.88374 0.924851Z" fill="#2A2B59"/>
</svg>
