<svg width="19" height="18" viewBox="0 0 19 18" fill="none" xmlns="http://www.w3.org/2000/svg">
<path fill-rule="evenodd" clip-rule="evenodd" d="M9.5 3C6.18629 3 3.5 5.68629 3.5 9C3.5 12.3137 6.18629 15 9.5 15C12.8137 15 15.5 12.3137 15.5 9C15.5 5.68629 12.8137 3 9.5 3ZM2 9C2 4.85786 5.35786 1.5 9.5 1.5C13.6421 1.5 17 4.85786 17 9C17 13.1421 13.6421 16.5 9.5 16.5C5.35786 16.5 2 13.1421 2 9Z" fill="#2A2B59" fill-opacity="0.4"/>
<path d="M5.97502 10.2C6.63777 10.2 7.17502 9.66273 7.17502 8.99999C7.17502 8.33725 6.63777 7.79999 5.97502 7.79999C5.31228 7.79999 4.77502 8.33725 4.77502 8.99999C4.77502 9.66273 5.31228 10.2 5.97502 10.2Z" fill="#2A2B59" fill-opacity="0.4"/>
<path d="M9.50005 10.2C10.1628 10.2 10.7 9.66273 10.7 8.99999C10.7 8.33725 10.1628 7.79999 9.50005 7.79999C8.83731 7.79999 8.30005 8.33725 8.30005 8.99999C8.30005 9.66273 8.83731 10.2 9.50005 10.2Z" fill="#2A2B59" fill-opacity="0.4"/>
<path d="M13.025 10.2C13.6877 10.2 14.225 9.66273 14.225 8.99999C14.225 8.33725 13.6877 7.79999 13.025 7.79999C12.3622 7.79999 11.825 8.33725 11.825 8.99999C11.825 9.66273 12.3622 10.2 13.025 10.2Z" fill="#2A2B59" fill-opacity="0.4"/>
</svg>
