<svg width="15" height="16" viewBox="0 0 15 16" fill="none" xmlns="http://www.w3.org/2000/svg">
<path fill-rule="evenodd" clip-rule="evenodd" d="M2.52273 2C1.97324 2 1.5 2.481 1.5 3V4.68269C1.5 5.23584 1.94422 5.69638 2.55207 5.75H4.22727C4.77676 5.75 5.25 5.269 5.25 4.75V3C5.25 2.44251 4.80699 2 4.29545 2H2.52273ZM0 3C0 1.63438 1.16312 0.5 2.52273 0.5H4.29545C5.69301 0.5 6.75 1.67287 6.75 3V4.75C6.75 6.11561 5.58688 7.25 4.22727 7.25H2.52273C2.50513 7.25 2.48753 7.24938 2.46997 7.24814C1.18071 7.15723 0 6.14169 0 4.68269V3ZM10.7727 2C10.2232 2 9.75 2.481 9.75 3V4.75C9.75 5.269 10.2232 5.75 10.7727 5.75H12.4773C13.0268 5.75 13.5 5.269 13.5 4.75V3C13.5 2.44251 13.057 2 12.5455 2H10.7727ZM8.25 3C8.25 1.63438 9.41312 0.5 10.7727 0.5H12.5455C13.943 0.5 15 1.67287 15 3V4.75C15 6.11561 13.8369 7.25 12.4773 7.25H10.7727C9.41312 7.25 8.25 6.11561 8.25 4.75V3ZM2.52273 10.25C1.97324 10.25 1.5 10.731 1.5 11.25V13C1.5 13.4698 1.92589 13.945 2.55201 14H4.22727C4.77676 14 5.25 13.519 5.25 13V11.25C5.25 10.6925 4.80699 10.25 4.29545 10.25H2.52273ZM0 11.25C0 9.88438 1.16312 8.75 2.52273 8.75H4.29545C5.69301 8.75 6.75 9.92287 6.75 11.25V13C6.75 14.3656 5.58688 15.5 4.22727 15.5H2.52273C2.50513 15.5 2.48753 15.4994 2.46997 15.4981C1.1998 15.4086 0 14.4089 0 13V11.25ZM10.7727 10.25C10.2232 10.25 9.75 10.731 9.75 11.25V13C9.75 13.519 10.2232 14 10.7727 14H12.4773C13.0268 14 13.5 13.519 13.5 13V11.25C13.5 10.6925 13.057 10.25 12.5455 10.25H10.7727ZM8.25 11.25C8.25 9.88438 9.41312 8.75 10.7727 8.75H12.5455C13.943 8.75 15 9.92287 15 11.25V13C15 14.3656 13.8369 15.5 12.4773 15.5H10.7727C9.41312 15.5 8.25 14.3656 8.25 13V11.25Z" fill="#2A2B59" fill-opacity="0.4"/>
</svg>
