<svg width="14" height="14" viewBox="0 0 14 14" fill="none" xmlns="http://www.w3.org/2000/svg">
<path fill-rule="evenodd" clip-rule="evenodd" d="M1.1665 3.20835C1.1665 2.06646 2.07599 1.16669 3.21632 1.16669H8.55431C9.26133 1.16669 9.8726 1.47999 10.3148 1.91973L12.0598 3.65503C12.6082 4.13201 12.8332 4.76602 12.8332 5.42502V10.7917C12.8332 11.9336 11.9237 12.8334 10.7834 12.8334H9.84481C9.52264 12.8334 9.26148 12.5722 9.26148 12.25V9.39169C9.26148 9.19191 9.1151 9.04169 8.90626 9.04169H5.09341C4.88458 9.04169 4.7382 9.19191 4.7382 9.39169V11.6667H8.02637C8.34854 11.6667 8.60971 11.9279 8.60971 12.25C8.60971 12.5722 8.34854 12.8334 8.02637 12.8334H3.21632C2.09163 12.8334 1.1665 11.9489 1.1665 10.85V3.20835ZM3.57153 11.6667H3.21632C2.69855 11.6667 2.33317 11.2678 2.33317 10.85V3.20835C2.33317 2.71691 2.71419 2.33335 3.21632 2.33335H8.55431C8.90315 2.33335 9.23043 2.48672 9.49214 2.74698L11.2519 4.49698C11.2625 4.5075 11.2735 4.51762 11.2848 4.5273C11.5444 4.74859 11.6665 5.04124 11.6665 5.42502V10.7917C11.6665 11.2831 11.2855 11.6667 10.7834 11.6667H10.4281V9.39169C10.4281 8.54146 9.75329 7.87502 8.90626 7.87502H5.09341C4.24638 7.87502 3.57153 8.54146 3.57153 9.39169V11.6667Z" fill="#2A2B59"/>
</svg>
