<svg width="20" height="20" viewBox="0 0 20 20" fill="none" xmlns="http://www.w3.org/2000/svg">
<path d="M10 0C4.5 0 0 4.5 0 10C0 15.5 4.5 20 10 20C15.5 20 20 15.5 20 10C20 4.5 15.5 0 10 0ZM10 18C5.6 18 2 14.4 2 10C2 5.6 5.6 2 10 2C14.4 2 18 5.6 18 10C18 14.4 14.4 18 10 18Z" fill="black"/>
<path d="M14 6.00001C13.6 5.60001 13 5.60001 12.6 6.00001L10 8.60001L7.40001 6.00001C7.00001 5.60001 6.40001 5.60001 6.00001 6.00001C5.60001 6.40001 5.60001 7.00001 6.00001 7.40001L8.60001 10L6.00001 12.6C5.60001 13 5.60001 13.6 6.00001 14C6.20001 14.2 6.50001 14.3 6.70001 14.3C6.90001 14.3 7.20001 14.2 7.40001 14L10 11.4L12.6 14C12.8 14.2 13.1 14.3 13.3 14.3C13.5 14.3 13.8 14.2 14 14C14.4 13.6 14.4 13 14 12.6L11.4 10L14 7.40001C14.4 7.00001 14.4 6.40001 14 6.00001Z" fill="black"/>
</svg>
