<svg width="13" height="13" viewBox="0 0 13 13" fill="none" xmlns="http://www.w3.org/2000/svg">
<path d="M10.1057 2.81554C9.9835 2.81554 9.92239 2.81554 9.80016 2.81554C9.12794 1.67725 7.90572 0.958328 6.50016 0.958328C5.15572 0.958328 3.87239 1.67725 3.20016 2.81554C3.07794 2.81554 3.01683 2.81554 2.89461 2.81554C1.36683 2.81554 0.0834961 4.07364 0.0834961 5.6313C0.0834961 7.18896 1.36683 8.38716 2.89461 8.38716H4.36127C4.72794 8.38716 4.97239 8.14752 4.97239 7.78806C4.97239 7.4286 4.72794 7.18896 4.36127 7.18896H2.89461C2.03905 7.18896 1.30572 6.47004 1.30572 5.6313C1.30572 4.73265 2.03905 4.07364 2.89461 4.07364C3.07794 4.07364 3.20016 4.07364 3.3835 4.13355C3.68905 4.25337 3.99461 4.07364 4.11683 3.77409C4.54461 2.75563 5.46127 2.15653 6.50016 2.15653C7.53905 2.15653 8.51683 2.75563 8.8835 3.71418C9.00572 4.01373 9.31127 4.13355 9.61683 4.07364C9.73905 4.01373 9.92239 4.01373 10.1057 4.01373C11.0224 4.01373 11.6946 4.73265 11.6946 5.57139C11.6946 6.47004 10.9613 7.12905 10.1057 7.12905H7.11127V5.21193C7.11127 4.85247 6.86683 4.61283 6.50016 4.61283C6.1335 4.61283 5.88905 4.85247 5.88905 5.21193V10.0047L5.33905 9.46554C5.09461 9.2259 4.72794 9.2259 4.4835 9.46554C4.23905 9.70517 4.23905 10.0646 4.4835 10.3043L6.07239 11.8619C6.19461 11.9818 6.37794 12.0417 6.50016 12.0417C6.62239 12.0417 6.80572 11.9818 6.92794 11.8619L8.51683 10.3043C8.76127 10.0646 8.76127 9.70517 8.51683 9.46554C8.27239 9.2259 7.90572 9.2259 7.66127 9.46554L7.11127 9.94481V8.38716H10.1057C11.6946 8.38716 12.9168 7.12905 12.9168 5.6313C12.9168 4.13355 11.6946 2.81554 10.1057 2.81554Z" fill="#E5C4B8"/>
</svg>
