<svg width="20" height="22" viewBox="0 0 20 22" fill="none" xmlns="http://www.w3.org/2000/svg">
<path d="M19.6301 0.20194C19.2355 -0.093961 18.6437 -0.093961 18.2491 0.399208L15.3884 3.95002C13.8101 2.86505 11.9359 2.27325 9.86437 2.27325C4.43896 2.27325 0 6.71177 0 12.1366C0 17.5615 4.43896 22 9.86437 22C15.2898 22 19.7287 17.5615 19.7287 12.1366C19.7287 10.1639 19.1369 8.38854 18.1504 6.8104L17.4599 7.59947L16.7694 8.38854L11.0481 15.5888C10.8508 15.7861 10.5549 15.9833 10.2589 15.9833C9.96301 15.9833 9.76572 15.8847 9.56843 15.6874L5.32676 11.1503C5.03083 10.8544 5.03083 10.3612 5.12947 10.0653C5.12947 9.96668 5.22811 9.86805 5.32676 9.76941C5.72133 9.37488 6.31319 9.37488 6.70777 9.76941L10.1603 13.5175L15.5857 6.71177L16.1776 5.9227L16.7694 5.13363L19.6301 1.58281C20.1233 1.18828 20.1233 0.596475 19.6301 0.20194Z" fill="#E5C4B8"/>
</svg>
